<?xml version="1.0" encoding="UTF-8"?>
<svg width="79.997px" height="80px" viewBox="0 0 79.997 80" version="1.1" xmlns="http://www.w3.org/2000/svg" xmlns:xlink="http://www.w3.org/1999/xlink">
    <title>Group</title>
    <defs>
        <path d="M4.25481876,0 C2.57081876,3.262 4.73981876,9.251 13.4148188,9.186 C10.7268188,11.456 8.35681876,14.092 6.36981876,17.01 C-6.60218124,8.027 4.25481876,0 4.25481876,0 Z" id="path-1"></path>
        <path d="M9.161,0 C9.161,0 20.016,8.027 7.045,17.01 C5.057,14.092 2.688,11.456 2.27373675e-13,9.186 C8.675,9.251 10.843,3.262 9.161,0 Z" id="path-3"></path>
        <path d="M8.52458206,0.135114609 C10.6775821,0.493114609 12.4985821,1.51111461 13.6835821,2.83711461 C13.0985821,5.80611461 12.1675821,8.64911461 10.9315821,11.3231146 C9.64458206,11.7321146 8.15358206,11.8471146 6.61258206,11.5901146 C2.47158206,10.9031146 -0.471417938,7.76711461 0.0625820619,4.60811461 C0.586582062,1.44811461 4.36758206,-0.551885391 8.52458206,0.135114609 Z" id="path-5"></path>
        <path d="M13.403,4.60811461 C13.938,7.76711461 10.993,10.9031146 6.852,11.5901146 C5.427,11.8341146 4.05,11.7451146 2.826,11.4141146 C1.54,8.64911461 0.585,5.70411461 -2.27373675e-13,2.62111461 C1.171,1.39611461 2.916,0.480114609 4.941,0.135114609 C9.095,-0.551885391 12.881,1.44811461 13.403,4.60811461 Z" id="path-7"></path>
        <path d="M38.724,0 C60.116,0 77.445,17.328 77.445,38.723 C77.445,41.335 77.191,43.896 76.681,46.355 C75.496,45.029 73.675,44.011 71.522,43.653 C67.365,42.966 63.584,44.966 63.06,48.126 C62.526,51.285 65.469,54.421 69.61,55.108 C71.151,55.365 72.642,55.25 73.929,54.841 C67.827,68.181 54.357,77.447 38.724,77.447 C23.113,77.447 9.671,68.22 3.554,54.932 C4.778,55.263 6.155,55.352 7.58,55.108 C11.721,54.421 14.666,51.285 14.131,48.126 C13.609,44.966 9.823,42.966 5.669,43.653 C3.644,43.998 1.899,44.914 0.728,46.139 C0.242,43.742 -2.27373675e-13,41.259 -2.27373675e-13,38.723 C-2.27373675e-13,17.328 17.329,0 38.724,0 Z" id="path-9"></path>
        <path d="M39.999,0 C62.054,0 79.997,17.944 79.997,39.999 C79.997,62.057 62.054,80 39.999,80 C17.944,80 0,62.057 0,39.999 C0,17.944 17.944,0 39.999,0 Z M39.999,2.548 C19.349,2.548 2.548,19.349 2.548,39.999 C2.548,60.65 19.349,77.452 39.999,77.452 C60.649,77.452 77.449,60.65 77.449,39.999 C77.449,19.349 60.649,2.548 39.999,2.548 Z" id="path-11"></path>
        <path d="M5.724,0 C8.372,0 10.623,1.68 11.455,4.038 C10.024,6.489 7.988,8.025 5.724,8.025 C3.468,8.025 1.423,6.489 0,4.038 C0.831,1.68 3.085,0 5.724,0 Z" id="path-13"></path>
        <path d="M15.658,0 C15.711,0.592 15.753,1.195 15.753,1.806 C15.753,5.161 14.944,8.214 13.603,10.489 C12.771,8.131 10.52,6.451 7.872,6.451 C5.233,6.451 2.979,8.131 2.148,10.489 C0.809,8.214 0,5.161 0,1.806 C0,1.195 0.039,0.592 0.092,0 L15.658,0 Z" id="path-15"></path>
        <path d="M1.826,0 L5.972,2.93 C5.88,4.501 4.588,5.75 2.993,5.75 C1.341,5.75 -2.27373675e-13,4.41 -2.27373675e-13,2.757 C-2.27373675e-13,1.517 0.754,0.453 1.826,0 Z" id="path-17"></path>
        <path d="M4.146,0 C5.219,0.453 5.973,1.517 5.973,2.757 C5.973,4.41 4.631,5.75 2.979,5.75 C1.383,5.75 0.093,4.501 -2.27373675e-13,2.93 L4.146,0 Z" id="path-19"></path>
        <path d="M0.956,0 C1.483,0 1.911,0.428 1.911,0.956 C1.911,3.493 4.435,6.329 7.815,6.329 C8.342,6.329 8.77,6.757 8.77,7.285 C8.77,7.812 8.342,8.24 7.815,8.24 C3.652,8.24 0,4.836 0,0.956 C0,0.428 0.428,0 0.956,0 Z" id="path-21"></path>
        <path d="M7.815,0 C8.342,0 8.77,0.428 8.77,0.956 C8.77,4.836 5.118,8.24 0.956,8.24 C0.428,8.24 0,7.812 0,7.285 C0,6.757 0.428,6.329 0.956,6.329 C4.335,6.329 6.859,3.493 6.859,0.956 C6.859,0.428 7.287,0 7.815,0 Z" id="path-23"></path>
    </defs>
    <g id="Page-39" stroke="none" stroke-width="1" fill="none" fill-rule="evenodd">
        <g id="BoxDesctop" transform="translate(-1831.768000, -188.042000)">
            <g id="Group" transform="translate(1831.768000, 188.042000)">
                <g id="Group-4298" transform="translate(1.320181, 1.273000)">
                    <mask id="mask-2" fill="white">
                        <use xlink:href="#path-1"></use>
                    </mask>
                    <g id="Clip-4297"></g>
                    <polygon id="Fill-4296" fill="#000000" mask="url(#mask-2)" points="-8.60218124 -2 15.4148188 -2 15.4148188 19.01 -8.60218124 19.01"></polygon>
                </g>
                <g id="Group-4301" transform="translate(64.700000, 1.273000)">
                    <mask id="mask-4" fill="white">
                        <use xlink:href="#path-3"></use>
                    </mask>
                    <g id="Clip-4300"></g>
                    <polygon id="Fill-4299" fill="#000000" mask="url(#mask-4)" points="-2 -2 22.016 -2 22.016 19.01 -2 19.01"></polygon>
                </g>
                <g id="Group-4304" transform="translate(64.034418, 44.796885)">
                    <mask id="mask-6" fill="white">
                        <use xlink:href="#path-5"></use>
                    </mask>
                    <g id="Clip-4303"></g>
                    <polygon id="Fill-4302" fill="#FF9A61" mask="url(#mask-6)" points="-2.47141794 -2.55188539 15.6835821 -2.55188539 15.6835821 13.8471146 -2.47141794 13.8471146"></polygon>
                </g>
                <g id="Group-4307" transform="translate(1.765000, 44.796885)">
                    <mask id="mask-8" fill="white">
                        <use xlink:href="#path-7"></use>
                    </mask>
                    <g id="Clip-4306"></g>
                    <polygon id="Fill-4305" fill="#FF9A61" mask="url(#mask-8)" points="-2 -2.55188539 15.938 -2.55188539 15.938 13.8341146 -2 13.8341146"></polygon>
                </g>
                <g id="Group-4310" transform="translate(1.037000, 1.279000)">
                    <mask id="mask-10" fill="white">
                        <use xlink:href="#path-9"></use>
                    </mask>
                    <g id="Clip-4309"></g>
                    <polygon id="Fill-4308" fill="#FFD642" mask="url(#mask-10)" points="-2 -2 79.445 -2 79.445 79.447 -2 79.447"></polygon>
                </g>
                <g id="Group-4313">
                    <mask id="mask-12" fill="white">
                        <use xlink:href="#path-11"></use>
                    </mask>
                    <g id="Clip-4312"></g>
                    <polygon id="Fill-4311" fill="#FFD642" mask="url(#mask-12)" points="-2 -2 81.997 -2 81.997 82 -2 82"></polygon>
                </g>
                <g id="Group-4316" transform="translate(34.152000, 47.516000)">
                    <mask id="mask-14" fill="white">
                        <use xlink:href="#path-13"></use>
                    </mask>
                    <g id="Clip-4315"></g>
                    <polygon id="Fill-4314" fill="#FF7C5F" mask="url(#mask-14)" points="-2 -2 13.455 -2 13.455 10.025 -2 10.025"></polygon>
                </g>
                <g id="Group-4319" transform="translate(32.004000, 41.065000)">
                    <mask id="mask-16" fill="white">
                        <use xlink:href="#path-15"></use>
                    </mask>
                    <g id="Clip-4318"></g>
                    <polygon id="Fill-4317" fill="#000000" mask="url(#mask-16)" points="-2 -2 17.753 -2 17.753 12.489 -2 12.489"></polygon>
                </g>
                <g id="Group-4322" transform="translate(13.006000, 36.200000)">
                    <mask id="mask-18" fill="white">
                        <use xlink:href="#path-17"></use>
                    </mask>
                    <g id="Clip-4321"></g>
                    <polygon id="Fill-4320" fill="#000000" mask="url(#mask-18)" points="-2 -2 7.972 -2 7.972 7.75 -2 7.75"></polygon>
                </g>
                <g id="Group-4325" transform="translate(60.541000, 36.200000)">
                    <mask id="mask-20" fill="white">
                        <use xlink:href="#path-19"></use>
                    </mask>
                    <g id="Clip-4324"></g>
                    <polygon id="Fill-4323" fill="#000000" mask="url(#mask-20)" points="-2 -2 7.973 -2 7.973 7.75 -2 7.75"></polygon>
                </g>
                <g id="Group-4328" transform="translate(14.011000, 30.049000)">
                    <mask id="mask-22" fill="white">
                        <use xlink:href="#path-21"></use>
                    </mask>
                    <g id="Clip-4327"></g>
                    <polygon id="Fill-4326" fill="#000000" mask="url(#mask-22)" points="-2 -2 10.77 -2 10.77 10.24 -2 10.24"></polygon>
                </g>
                <g id="Group-4331" transform="translate(56.885000, 30.049000)">
                    <mask id="mask-24" fill="white">
                        <use xlink:href="#path-23"></use>
                    </mask>
                    <g id="Clip-4330"></g>
                    <polygon id="Fill-4329" fill="#000000" mask="url(#mask-24)" points="-2 -2 10.77 -2 10.77 10.24 -2 10.24"></polygon>
                </g>
            </g>
        </g>
    </g>
</svg>